<svg xmlns="http://www.w3.org/2000/svg" width="40" height="40" viewBox="0 0 40 40" fill="none">
  <path opacity="0.4"
    d="M11.6059 0H28.3742C35.6578 0 40 4.34 40 11.62V28.36C40 35.66 35.6578 40 28.3742 40H11.6259C4.34223 40 6.86646e-05 35.66 6.86646e-05 28.38V11.62C-0.0199394 4.34 4.32222 0 11.6059 0Z"
    fill="#2D573E" />
  <path
    d="M9.98489 12.5H29.9949C30.8153 12.5 31.4956 11.82 31.4956 11C31.4956 10.18 30.8153 9.5 29.9949 9.5H9.98489C9.16448 9.5 8.48414 10.18 8.48414 11C8.48414 11.82 9.16448 12.5 9.98489 12.5Z"
    fill="#2D573E" />
  <path
    d="M9.98489 21.5H29.9949C30.8153 21.5 31.4956 20.82 31.4956 20C31.4956 19.18 30.8153 18.5 29.9949 18.5H9.98489C9.16448 18.5 8.48414 19.18 8.48414 20C8.48414 20.82 9.16448 21.5 9.98489 21.5Z"
    fill="#2D573E" />
  <path
    d="M9.98489 30.5H29.9949C30.8153 30.5 31.4956 29.82 31.4956 29C31.4956 28.18 30.8153 27.5 29.9949 27.5H9.98489C9.16448 27.5 8.48414 28.18 8.48414 29C8.48414 29.82 9.16448 30.5 9.98489 30.5Z"
    fill="#2D573E" />
</svg>