<svg xmlns="http://www.w3.org/2000/svg" width="26" height="26" viewBox="0 0 26 26" fill="none">
  <path
    d="M16.4354 26.0007H9.26358C2.7731 26.0007 0 23.2276 0 16.7371V9.56532C0 3.07484 2.7731 0.301743 9.26358 0.301743H11.6542C12.1443 0.301743 12.5507 0.708145 12.5507 1.19822C12.5507 1.68829 12.1443 2.09469 11.6542 2.09469H9.26358C3.75324 2.09469 1.79295 4.05499 1.79295 9.56532V16.7371C1.79295 22.2475 3.75324 24.2077 9.26358 24.2077H16.4354C21.9457 24.2077 23.906 22.2475 23.906 16.7371V14.3465C23.906 13.8564 24.3124 13.45 24.8025 13.45C25.2926 13.45 25.699 13.8564 25.699 14.3465V16.7371C25.699 23.2276 22.9259 26.0007 16.4354 26.0007Z"
    fill="white" />
  <path
    d="M8.66457 19.9526C7.93543 19.9526 7.26607 19.6896 6.77599 19.2115C6.1903 18.6258 5.93928 17.7772 6.07077 16.8807L6.58474 13.2828C6.68037 12.5895 7.13458 11.6931 7.62466 11.203L17.0436 1.78399C19.4222 -0.594662 21.8367 -0.594662 24.2154 1.78399C25.5182 3.08686 26.1039 4.41365 25.9844 5.74043C25.8768 6.8162 25.3031 7.86806 24.2154 8.94384L14.7964 18.3629C14.3063 18.8529 13.4098 19.3071 12.7166 19.4028L9.11878 19.9167C8.96339 19.9526 8.808 19.9526 8.66457 19.9526ZM18.3106 3.051L8.89167 12.47C8.66457 12.6971 8.4016 13.2231 8.35379 13.5338L7.83981 17.1317C7.792 17.4783 7.86372 17.7652 8.04301 17.9445C8.22231 18.1238 8.50918 18.1955 8.85582 18.1477L12.4536 17.6337C12.7644 17.5859 13.3023 17.3229 13.5174 17.0958L22.9364 7.67682C23.7133 6.89987 24.1197 6.2066 24.1795 5.56114C24.2512 4.78419 23.8448 3.95943 22.9364 3.03905C21.0239 1.12657 19.7091 1.66446 18.3106 3.051Z"
    fill="white" />
  <path
    d="M22.2313 10.5571C22.1477 10.5571 22.064 10.5451 21.9923 10.5212C18.8486 9.6367 16.3504 7.13852 15.4659 3.99488C15.3344 3.51676 15.6094 3.02669 16.0875 2.88325C16.5656 2.75177 17.0557 3.02669 17.1872 3.50481C17.9043 6.0508 19.9244 8.07086 22.4704 8.78804C22.9485 8.91952 23.2234 9.42155 23.0919 9.89967C22.9844 10.3061 22.6258 10.5571 22.2313 10.5571Z"
    fill="white" />
</svg>