<svg xmlns="http://www.w3.org/2000/svg" width="40" height="41" viewBox="0 0 40 41" fill="none">
  <path
    d="M28.3941 0H11.6258C4.34216 0 0 4.34216 0 11.6258V28.3741C0 35.6778 4.34216 40.0199 11.6258 40.0199H28.3741C35.6578 40.0199 39.9999 35.6778 39.9999 28.3941V11.6258C40.0199 4.34216 35.6778 0 28.3941 0ZM26.7333 24.6123C27.3136 25.1926 27.3136 26.153 26.7333 26.7333C26.4332 27.0335 26.053 27.1735 25.6728 27.1735C25.2926 27.1735 24.9124 27.0335 24.6123 26.7333L20.01 22.131L15.4077 26.7333C15.1075 27.0335 14.7273 27.1735 14.3471 27.1735C13.967 27.1735 13.5868 27.0335 13.2866 26.7333C12.7063 26.153 12.7063 25.1926 13.2866 24.6123L17.8889 20.01L13.2866 15.4077C12.7063 14.8274 12.7063 13.8669 13.2866 13.2866C13.8669 12.7063 14.8274 12.7063 15.4077 13.2866L20.01 17.8889L24.6123 13.2866C25.1926 12.7063 26.153 12.7063 26.7333 13.2866C27.3136 13.8669 27.3136 14.8274 26.7333 15.4077L22.131 20.01L26.7333 24.6123Z"
    fill="#2D573E" />
</svg>