<svg xmlns="http://www.w3.org/2000/svg" width="26" height="26" viewBox="0 0 26 26" fill="none">
  <path
    d="M17.0742 26H16.9097C11.2894 26 8.58055 23.7848 8.1122 18.8228C8.06156 18.3038 8.44131 17.8355 8.97295 17.7848C9.47928 17.7342 9.9603 18.1266 10.0109 18.6456C10.378 22.6203 12.2514 24.1013 16.9223 24.1013H17.0869C22.2388 24.1013 24.0615 22.2785 24.0615 17.1266V8.87341C24.0615 3.72151 22.2388 1.89873 17.0869 1.89873H16.9223C12.2261 1.89873 10.3527 3.40506 10.0109 7.45569C9.94764 7.97468 9.5046 8.36708 8.97295 8.31645C8.44131 8.27847 8.06156 7.81012 8.09954 7.29113C8.52992 2.25316 11.2514 0 16.9097 0H17.0742C23.2894 0 25.9476 2.65823 25.9476 8.87341V17.1266C25.9476 23.3418 23.2894 26 17.0742 26Z"
    fill="white" />
  <path
    d="M16.7684 13.9494H2.36343C1.84444 13.9494 1.41406 13.519 1.41406 13C1.41406 12.481 1.84444 12.0506 2.36343 12.0506H16.7684C17.2874 12.0506 17.7178 12.481 17.7178 13C17.7178 13.519 17.2874 13.9494 16.7684 13.9494Z"
    fill="white" />
  <path
    d="M5.1867 18.19C4.9462 18.19 4.70569 18.1014 4.51582 17.9115L0.275316 13.671C-0.091772 13.3039 -0.091772 12.6963 0.275316 12.3292L4.51582 8.08873C4.88291 7.72164 5.4905 7.72164 5.85759 8.08873C6.22468 8.45582 6.22468 9.06341 5.85759 9.4305L2.28797 13.0001L5.85759 16.5697C6.22468 16.9368 6.22468 17.5444 5.85759 17.9115C5.68037 18.1014 5.42721 18.19 5.1867 18.19Z"
    fill="white" />
</svg>